<svg width="24" height="24" viewBox="0 0 24 24" fill="none" xmlns="http://www.w3.org/2000/svg">
<path d="M12 4C16.4062 4 20 7.59375 20 12C20 16.4375 16.4062 20 12 20C7.5625 20 4 16.4375 4 12C4 7.59375 7.5625 4 12 4ZM12 8C11.4375 8 11 8.46875 11 9C11 9.5625 11.4375 10 12 10C12.5312 10 13 9.5625 13 9C13 8.46875 12.5312 8 12 8ZM13.25 16C13.6562 16 14 15.6875 14 15.25C14 14.8438 13.6562 14.5 13.25 14.5H12.75V11.75C12.75 11.3438 12.4062 11 12 11H11C10.5625 11 10.25 11.3438 10.25 11.75C10.25 12.1875 10.5625 12.5 11 12.5H11.25V14.5H10.75C10.3125 14.5 10 14.8438 10 15.25C10 15.6875 10.3125 16 10.75 16H13.25Z" fill="#7F56D9"/>
</svg>
