<svg width="20" height="20" viewBox="0 0 20 20" fill="none" xmlns="http://www.w3.org/2000/svg">
<rect width="20" height="20" rx="10" fill="#E43F54"/>
<path d="M14.8828 13.3945C15.1953 13.9414 14.8047 14.625 14.1602 14.625H5.82031C5.17578 14.625 4.78516 13.9414 5.09766 13.3945L9.27734 6.28516C9.58984 5.73828 10.3906 5.73828 10.7227 6.28516L14.8828 13.3945ZM9.53125 8.53125V11.0312C9.53125 11.3047 9.76562 11.5 10 11.5C10.2539 11.5 10.4688 11.3047 10.4688 11.0312V8.53125C10.4688 8.27734 10.2539 8.0625 10 8.0625C9.72656 8.0625 9.53125 8.27734 9.53125 8.53125ZM10 13.375C10.332 13.375 10.6055 13.1016 10.6055 12.7695C10.6055 12.4375 10.332 12.1641 10 12.1641C9.64844 12.1641 9.375 12.4375 9.375 12.7695C9.375 13.1016 9.64844 13.375 10 13.375Z" fill="white"/>
</svg>
