<svg width="20" height="20" viewBox="0 0 20 20" fill="none" xmlns="http://www.w3.org/2000/svg">
<rect width="20" height="20" rx="10" fill="#FFC20C"/>
<path d="M12.875 5.25C13.207 5.25 13.5 5.54297 13.5 5.875C13.5 6.22656 13.207 6.5 12.875 6.5V6.71484C12.875 7.55469 12.543 8.35547 11.957 8.94141L10.6289 10.25L11.957 11.5781C12.543 12.1641 12.875 12.9648 12.875 13.7852V14C13.207 14 13.5 14.293 13.5 14.625C13.5 14.9766 13.207 15.25 12.875 15.25H6.625C6.27344 15.25 6 14.9766 6 14.625C6 14.293 6.27344 14 6.625 14V13.7852C6.625 12.9648 6.9375 12.1641 7.52344 11.5781L8.85156 10.25L7.52344 8.94141C6.9375 8.35547 6.625 7.55469 6.625 6.71484V6.5C6.27344 6.5 6 6.22656 6 5.875C6 5.54297 6.27344 5.25 6.625 5.25H12.875ZM8.16797 7.75H11.3125C11.5078 7.45703 11.625 7.08594 11.625 6.71484V6.5H7.875V6.71484C7.875 7.08594 7.97266 7.45703 8.16797 7.75ZM8.16797 12.75H11.3125C11.2344 12.6523 11.1562 12.5547 11.0586 12.4766L9.75 11.1484L8.42188 12.4766C8.32422 12.5547 8.24609 12.6523 8.16797 12.75Z" fill="white"/>
</svg>
