<svg width="14" height="16" viewBox="0 0 14 16" fill="none" xmlns="http://www.w3.org/2000/svg">
<path d="M14 11C14 11.6562 13.5625 12.2188 13 12.4375V14.5H13.25C13.6562 14.5 14 14.8438 14 15.25C14 15.6875 13.6562 16 13.25 16H2.5C1.09375 16 0 14.9062 0 13.5V2.5C0 1.125 1.09375 0 2.5 0H12.5C13.3125 0 14 0.6875 14 1.5V11ZM11.5 14.5V12.5H2.5C1.9375 12.5 1.5 12.9688 1.5 13.5C1.5 14.0625 1.9375 14.5 2.5 14.5H11.5ZM12.5 11V1.5H2.5C1.9375 1.5 1.5 1.96875 1.5 2.5V11.2188C1.78125 11.0938 2.125 11 2.5 11H12.5ZM4.75 5C4.3125 5 4 4.6875 4 4.25C4 3.84375 4.3125 3.5 4.75 3.5H10.25C10.6562 3.5 11 3.84375 11 4.25C11 4.6875 10.6562 5 10.25 5H4.75ZM4.75 7.5C4.3125 7.5 4 7.1875 4 6.75C4 6.34375 4.3125 6 4.75 6H10.25C10.6562 6 11 6.34375 11 6.75C11 7.1875 10.6562 7.5 10.25 7.5H4.75Z" fill="#1F1F1F"/>
</svg>
